<svg xmlns="http://www.w3.org/2000/svg" viewBox="0 0 100 125" x="0px" y="0px"><path d="M79.1 7.5H18.5c-3.4 0-6.1 2.7-6.1 6.1v51.6c0 3.4 2.7 6.1 6.1 6.1h3.1l12.9 26.1 13.7-26.1H79.1c3.4 0 6.1-2.7 6.1-6.1V13.7c0-3.4-2.7-6.2-6.1-6.2zm-.6 51.9c0 3.4-2.7 6.1-6.1 6.1H25.3c-3.4 0-6.1-2.7-6.1-6.1V19.6c0-3.4 2.7-6.1 6.1-6.1h47.1c3.4 0 6.1 2.7 6.1 6.1v39.8z"/><text x="0" y="115" fill="#000000" font-size="5px" font-weight="bold" font-family="'Helvetica Neue', Helvetica, Arial-Unicode, Arial, Sans-serif">Created by Liane Kirschner</text><text x="0" y="120" fill="#000000" font-size="5px" font-weight="bold" font-family="'Helvetica Neue', Helvetica, Arial-Unicode, Arial, Sans-serif">from the Noun Project</text></svg>